HIERARCHY
ROOT Hips
{
	OFFSET 0.000000 0.000000 0.000000
	CHANNELS 6 Xposition Yposition Zposition Zrotation Yrotation Xrotation
	JOINT LHipJoint
	{
		OFFSET 0.000000 0.000000 0.000000
		CHANNELS 3 Zrotation Yrotation Xrotation
		JOINT LeftUpLeg
		{
			OFFSET 1.363060 -1.794630 0.839290
			CHANNELS 3 Zrotation Yrotation Xrotation
			JOINT LeftLeg
			{
				OFFSET 2.448110 -6.726130 0.000000
				CHANNELS 3 Zrotation Yrotation Xrotation
				JOINT LeftFoot
				{
					OFFSET 2.562200 -7.039590 0.000000
					CHANNELS 3 Zrotation Yrotation Xrotation
					JOINT LeftToeBase
					{
						OFFSET 0.157640 -0.433110 2.322550
						CHANNELS 3 Zrotation Yrotation Xrotation
						End Site
						{
							OFFSET 0.000000 0.000000 0.000000
						}
					}
				}
			}
		}
	}
	JOINT RHipJoint
	{
		OFFSET 0.000000 0.000000 0.000000
		CHANNELS 3 Zrotation Yrotation Xrotation
		JOINT RightUpLeg
		{
			OFFSET -1.305520 -1.794630 0.839290
			CHANNELS 3 Zrotation Yrotation Xrotation
			JOINT RightLeg
			{
				OFFSET -2.542530 -6.985550 0.000000
				CHANNELS 3 Zrotation Yrotation Xrotation
				JOINT RightFoot
				{
					OFFSET -2.568260 -7.056230 0.000000
					CHANNELS 3 Zrotation Yrotation Xrotation
					JOINT RightToeBase
					{
						OFFSET -0.164730 -0.452590 2.363150
						CHANNELS 3 Zrotation Yrotation Xrotation
						End Site
						{
							OFFSET 0.000000 0.000000 0.000000
						}
					}
				}
			}
		}
	}
	JOINT LowerBack
	{
		OFFSET 0.000000 0.000000 0.000000
		CHANNELS 3 Zrotation Yrotation Xrotation
		JOINT Spine
		{
			OFFSET 0.028270 2.035590 -0.193380
			CHANNELS 3 Zrotation Yrotation Xrotation
			JOINT Spine1
			{
				OFFSET 0.056720 2.048850 -0.042750
				CHANNELS 3 Zrotation Yrotation Xrotation
				JOINT Neck
				{
					OFFSET 0.000000 0.000000 0.000000
					CHANNELS 3 Zrotation Yrotation Xrotation
					JOINT Neck1
					{
						OFFSET -0.054170 1.746240 0.172020
						CHANNELS 3 Zrotation Yrotation Xrotation
						JOINT Head
						{
							OFFSET 0.104070 1.761360 -0.123970
							CHANNELS 3 Zrotation Yrotation Xrotation
							End Site
							{
								OFFSET 0.000000 0.000000 0.000000
							}
						}
					}
				}
				JOINT LeftShoulder
				{
					OFFSET 0.000000 0.000000 0.000000
					CHANNELS 3 Zrotation Yrotation Xrotation
					JOINT LeftArm
					{
						OFFSET 3.362410 1.200890 -0.311210
						CHANNELS 3 Zrotation Yrotation Xrotation
						JOINT LeftForeArm
						{
							OFFSET 4.983000 -0.000000 -0.000000
							CHANNELS 3 Zrotation Yrotation Xrotation
							JOINT LeftHand
							{
								OFFSET 3.483560 -0.000000 -0.000000
								CHANNELS 3 Zrotation Yrotation Xrotation
								JOINT LeftFingerBase
								{
									OFFSET 0.000000 0.000000 0.000000
									CHANNELS 3 Zrotation Yrotation Xrotation
									JOINT LeftHandIndex1
									{
										OFFSET 0.715260 -0.000000 -0.000000
										CHANNELS 3 Zrotation Yrotation Xrotation
										End Site
										{
											OFFSET 0.000000 0.000000 0.000000
										}
									}
								}
								JOINT LThumb
								{
									OFFSET 0.000000 0.000000 0.000000
									CHANNELS 3 Zrotation Yrotation Xrotation
									End Site
									{
										OFFSET 0.000000 0.000000 0.000000
									}
								}
							}
						}
					}
				}
				JOINT RightShoulder
				{
					OFFSET 0.000000 0.000000 0.000000
					CHANNELS 3 Zrotation Yrotation Xrotation
					JOINT RightArm
					{
						OFFSET -3.136600 1.374050 -0.404650
						CHANNELS 3 Zrotation Yrotation Xrotation
						JOINT RightForeArm
						{
							OFFSET -5.241900 -0.000000 -0.000000
							CHANNELS 3 Zrotation Yrotation Xrotation
							JOINT RightHand
							{
								OFFSET -3.444170 -0.000000 -0.000000
								CHANNELS 3 Zrotation Yrotation Xrotation
								JOINT RightFingerBase
								{
									OFFSET 0.000000 0.000000 0.000000
									CHANNELS 3 Zrotation Yrotation Xrotation
									JOINT RightHandIndex1
									{
										OFFSET -0.622530 -0.000000 -0.000000
										CHANNELS 3 Zrotation Yrotation Xrotation
										End Site
										{
											OFFSET 0.000000 0.000000 0.000000
										}
									}
								}
								JOINT RThumb
								{
									OFFSET 0.000000 0.000000 0.000000
									CHANNELS 3 Zrotation Yrotation Xrotation
									End Site
									{
										OFFSET 0.000000 0.000000 0.000000
									}
								}
							}
						}
					}
				}
			}
		}
	}
}
MOTION
Frames: 12
Frame Time: 0.008333
0.004948 0.027537 0.088903 -0.016536 -0.127330 0.135421 -0.080777 -0.038434 -0.053789 0.261248 -0.321101 0.006877 -0.358172 -0.377330 -1.456127 -0.113507 0.548188 0.834839 0.106417 1.647290 4.542929 0.031021 -0.009794 0.041037 -0.082130 0.010212 0.278147 0.043148 0.077700 -0.227785 -0.000863 0.005685 0.019654 -0.010176 -0.090510 0.250698 0.035256 0.079201 -0.035655 0.001005 0.101881 -0.016180 -0.026221 0.054863 0.018423 -0.052320 0.009986 0.032322 0.042239 0.017110 -0.118828 0.022333 0.005463 -0.043167 0.001437 0.003017 -0.000289 -0.103837 0.147073 -0.166112 -0.052934 0.097440 0.018704 0.024187 0.010135 -0.046911 -0.809607 -0.258235 -0.424221 0.000000 0.000000 0.000000 -0.777854 -0.424596 -0.064054 -0.002300 0.006220 0.003763 -0.113213 0.204046 0.081102 -0.068556 0.089583 -0.027478 0.003221 -0.017138 0.126116 -0.147996 0.322330 -0.179468 -0.000000 0.000000 0.000000 -0.068124 0.372057 -0.024315
0.014100 0.176445 0.329720 0.025035 -0.068194 0.274121 0.017245 0.010661 -0.006804 0.335378 -0.247782 0.042290 -0.312785 -0.237324 -1.076136 -0.088285 0.683308 1.022983 0.134136 1.714253 4.740171 0.125339 0.015663 0.111837 0.223635 0.136795 0.440968 0.074432 0.103416 0.024769 0.033655 0.200122 0.272375 0.016889 -0.017257 0.484774 0.110080 0.121395 0.063102 0.038369 0.155849 0.042581 0.016137 0.086002 0.094421 0.001641 0.052681 0.079228 0.101189 0.073009 0.036514 0.086052 0.033581 0.060724 0.076902 0.071482 0.013575 -0.083125 0.340704 0.231733 0.078847 0.157247 0.043443 0.032547 0.033970 0.326179 -0.559659 0.039082 -0.283825 -0.003612 0.000000 0.000000 -0.245764 0.426380 0.580187 0.099608 0.076334 0.026055 0.581930 0.381314 0.420609 0.078793 0.455171 0.087359 0.026261 0.003404 0.281362 1.091464 0.906419 0.811369 0.056101 0.000000 0.000000 1.261412 0.983315 1.314693
-0.061034 0.218839 0.156778 -0.023260 -0.124915 0.225908 -0.047319 -0.018684 -0.033159 0.185860 -0.346331 -0.302716 -0.341958 -0.259230 -1.131093 -0.117000 0.596941 0.923711 0.113463 1.644255 4.525264 0.036970 -0.025818 0.066660 0.162690 0.071478 0.284257 0.046461 0.029566 -0.016800 -0.001287 0.066920 0.073875 -0.010305 -0.084672 0.306603 0.076126 0.106311 -0.017372 0.020603 0.136275 -0.027347 -0.022376 0.076364 0.005956 -0.087132 -0.007268 -0.053683 0.081904 -0.000841 0.005231 0.043463 -0.001281 0.032551 0.003501 0.020116 -0.002319 -0.779285 0.282032 -0.046738 0.031321 -0.029478 0.007230 0.020351 0.010861 0.101267 -0.639336 -0.168788 -0.381102 -0.055532 0.000000 0.000000 -0.765224 -0.016422 0.042007 0.028157 0.019223 0.002213 0.588306 0.278003 0.347116 -0.230135 0.403478 -0.081330 0.012922 -0.014769 0.089566 -0.103561 0.412892 -0.025395 0.063465 0.000000 0.000000 0.192614 0.225905 0.184538
-0.192343 0.190684 -0.309034 -0.109945 -0.247692 0.104862 -0.175208 -0.079782 -0.089557 -0.050152 -0.511324 -0.792280 -0.399934 -0.345241 -1.357755 -0.166956 0.424464 0.708726 0.073294 1.518550 4.142061 -0.126319 -0.094786 -0.026121 -0.049550 -0.072750 -0.003698 -0.005746 -0.084961 -0.180869 -0.065161 -0.203374 -0.311266 -0.060250 -0.211098 -0.044849 -0.003051 0.067318 -0.172744 -0.020220 0.085799 -0.151038 -0.094678 0.049551 -0.151389 -0.235643 -0.110120 -0.262233 0.029842 -0.129521 -0.104875 -0.044033 -0.062587 -0.051080 -0.132435 -0.081598 -0.030721 -1.775985 0.117567 -0.608344 -0.091365 -0.319259 -0.054457 -0.000415 -0.031750 -0.372876 -0.856411 -0.587216 -0.576992 -0.127502 0.000000 0.000000 -1.720944 -0.995078 -0.985939 -0.115134 -0.090692 -0.040737 0.309393 0.058540 0.102538 -0.727928 0.179054 -0.367336 -0.015457 -0.048923 -0.245483 -2.302885 -0.524734 -1.614763 0.050755 0.000000 0.000000 -1.862776 -1.094601 -1.960948
-0.226736 0.350088 -0.045548 -0.046396 -0.104708 0.288166 -0.039278 -0.004009 -0.012009 0.097451 -0.381112 -0.641794 -0.332970 -0.154858 -0.842805 -0.126362 0.617080 0.987607 0.116271 1.630248 4.476600 0.030918 -0.046191 0.085526 0.387833 0.122286 0.272867 0.046279 -0.024822 0.180727 -0.004862 0.111821 0.097222 -0.014243 -0.088841 0.331525 0.107569 0.128639 -0.014044 0.035844 0.165071 -0.049412 -0.025499 0.095023 -0.018392 -0.132901 -0.032449 -0.149676 0.116572 -0.027182 0.117019 0.058409 -0.012322 0.100142 -0.003557 0.030006 -0.006124 -1.500082 0.400969 0.028185 0.104173 -0.172762 -0.008292 0.015089 0.008155 0.206879 -0.492612 -0.116344 -0.356402 -0.114811 0.000000 0.000000 -0.833916 0.288884 0.053827 0.044906 0.022414 -0.003029 1.234697 0.329384 0.579902 -0.429054 0.683253 -0.158983 0.019537 -0.015678 0.023662 -0.264965 0.411818 -0.028862 0.122728 0.000000 0.000000 0.241747 -0.040913 0.174556
-0.292332 0.433766 -0.071478 -0.050947 -0.032206 0.384800 0.021519 0.033817 0.027758 0.140251 -0.331526 -0.668959 -0.300120 -0.039399 -0.528425 -0.111204 0.709615 1.136588 0.137417 1.681344 4.625722 0.103340 -0.028694 0.142892 0.651853 0.226981 0.399085 0.070704 -0.012346 0.402462 0.022398 0.273397 0.300740 0.006545 -0.031980 0.519801 0.170374 0.164305 0.064196 0.066972 0.210937 -0.006102 0.007043 0.121958 0.039839 -0.095510 -0.001754 -0.121373 0.166722 0.014024 0.251026 0.110416 0.008404 0.189014 0.054961 0.084553 0.004308 -1.565403 0.564272 0.342095 0.214159 -0.143370 0.008924 0.020887 0.026076 0.504810 -0.284180 0.116594 -0.246608 -0.124731 0.000000 0.000000 -0.439411 0.966065 0.539058 0.123342 0.075607 0.012962 1.835728 0.468465 0.863189 -0.344889 0.991055 -0.084171 0.037434 -0.000605 0.129899 0.629077 0.843026 0.698449 0.171802 0.000000 0.000000 1.220915 0.370411 1.151528
-0.349278 0.517827 -0.092254 -0.055630 0.034874 0.435427 0.042869 0.049407 0.046077 0.125781 -0.325843 -0.787983 -0.285379 0.035406 -0.323561 -0.109977 0.744886 1.211668 0.146129 1.696656 4.663023 0.128962 -0.028337 0.170815 0.822560 0.282524 0.443435 0.080264 -0.025201 0.548532 0.031763 0.351176 0.386038 0.013628 -0.010635 0.603060 0.204986 0.185303 0.096569 0.084280 0.238198 0.004698 0.019146 0.138752 0.055135 -0.094854 0.002523 -0.139899 0.195866 0.021486 0.336482 0.134568 0.012352 0.242593 0.073729 0.107286 0.006852 -1.821055 0.660599 0.477159 0.276229 -0.179086 0.010045 0.021266 0.031525 0.644107 -0.163181 0.215638 -0.200195 -0.147504 0.000000 0.000000 -0.323230 1.300277 0.710830 0.156038 0.095143 0.016769 2.254867 0.533915 1.037478 -0.381122 1.188737 -0.084020 0.045757 0.004229 0.144353 0.880209 0.990250 0.943765 0.208023 0.000000 0.000000 1.568960 0.421588 1.481233
-0.406197 0.601392 -0.115505 -0.060271 0.101621 0.485598 0.064380 0.065023 0.064554 0.111780 -0.319928 -0.906370 -0.270537 0.110560 -0.117650 -0.108623 0.780679 1.287312 0.154931 1.712146 4.700798 0.154751 -0.027938 0.198816 0.993510 0.338193 0.488015 0.089852 -0.037998 0.694831 0.041169 0.429187 0.471699 0.020768 0.010835 0.686598 0.239653 0.206334 0.129043 0.101609 0.265477 0.015515 0.031270 0.155554 0.070467 -0.094138 0.006837 -0.158323 0.225067 0.029069 0.422094 0.158798 0.016339 0.296253 0.092574 0.130058 0.009405 -2.076595 0.756986 0.612351 0.338325 -0.214749 0.011181 0.021650 0.036983 0.783518 -0.042125 0.314732 -0.153761 -0.170272 0.000000 0.000000 -0.206950 1.634576 0.882703 0.188752 0.114691 0.020581 2.674119 0.599416 1.211855 -0.417265 1.386497 -0.083805 0.054088 0.009072 0.158896 1.132030 1.137782 1.189618 0.244258 0.000000 0.000000 1.917739 0.473225 1.811811
-0.456424 0.697774 -0.088978 -0.047672 0.202767 0.565004 0.111605 0.094769 0.096167 0.146369 -0.276597 -0.944818 -0.239358 0.219900 0.179937 -0.096326 0.860502 1.421602 0.173607 1.755235 4.824081 0.218541 -0.013601 0.251459 1.243611 0.435144 0.601293 0.112192 -0.029417 0.905773 0.065830 0.578162 0.653205 0.039596 0.062587 0.858488 0.297188 0.239377 0.199082 0.130474 0.308058 0.052584 0.059869 0.180950 0.119610 -0.064497 0.031918 -0.140304 0.269962 0.062564 0.544918 0.204294 0.032805 0.375561 0.140314 0.175901 0.017699 -2.195576 0.901404 0.875693 0.434150 -0.204348 0.023699 0.025846 0.051075 1.032977 0.139583 0.506063 -0.064258 -0.184342 0.000000 0.000000 0.096270 2.198214 1.264101 0.252235 0.156760 0.032503 3.214423 0.714057 1.458377 -0.374003 1.656871 -0.034386 0.068713 0.020575 0.233147 1.800362 1.468810 1.746054 0.288774 0.000000 0.000000 2.670800 0.755561 2.557654
-0.494606 0.805805 -0.017805 -0.023755 0.317772 0.658102 0.170687 0.131658 0.132676 0.197827 -0.220103 -0.953764 -0.200610 0.344771 0.519545 -0.078559 0.963294 1.588031 0.197690 1.814786 4.998319 0.304355 0.008807 0.317937 1.536874 0.554770 0.752276 0.141491 -0.009449 1.151118 0.098625 0.763996 0.883305 0.064524 0.130130 1.077930 0.366952 0.278763 0.288930 0.165414 0.358773 0.103616 0.097215 0.210732 0.186412 -0.019687 0.067901 -0.104063 0.322817 0.109261 0.686721 0.259967 0.055197 0.467598 0.202387 0.232790 0.028676 -2.248729 1.068964 1.199877 0.546004 -0.171681 0.041722 0.031891 0.069368 1.336169 0.350904 0.742954 0.046518 -0.194072 0.000000 0.000000 0.493279 2.877552 1.751170 0.331070 0.210047 0.048492 3.815417 0.853333 1.741180 -0.290540 1.964013 0.039737 0.086479 0.035431 0.337442 2.679390 1.892524 2.460368 0.337499 0.000000 0.000000 3.629541 1.155252 3.515754
-0.545371 0.887718 -0.045498 -0.020391 0.404692 0.716061 0.199311 0.149646 0.150691 0.192808 -0.207198 -1.057860 -0.181038 0.425252 0.740021 -0.075894 1.004822 1.673791 0.208197 1.834734 5.051803 0.337408 0.011872 0.350531 1.723271 0.618473 0.810196 0.153547 -0.018390 1.309321 0.110799 0.853263 0.982797 0.073775 0.157003 1.179390 0.405777 0.301880 0.327854 0.184950 0.388873 0.118789 0.112031 0.229202 0.207823 -0.014427 0.075436 -0.117069 0.354415 0.120585 0.777629 0.287120 0.061001 0.524838 0.225199 0.258438 0.031971 -2.484918 1.172105 1.353146 0.612609 -0.201017 0.044408 0.032797 0.075979 1.490544 0.480173 0.854892 0.098940 -0.215644 0.000000 0.000000 0.635171 3.243691 1.952005 0.368240 0.232811 0.053431 4.251419 0.925646 1.925668 -0.315668 2.171818 0.046856 0.095696 0.041207 0.360341 2.989281 2.065455 2.749951 0.374896 0.000000 0.000000 4.035518 1.239429 3.905683
-0.596020 0.969769 -0.073148 -0.016583 0.492526 0.774794 0.228327 0.167789 0.168839 0.187999 -0.194107 -1.161360 -0.161370 0.505892 0.960923 -0.073174 1.046537 1.759550 0.218693 1.854589 5.104867 0.370257 0.014864 0.382993 1.909219 0.681975 0.867749 0.165549 -0.027410 1.467266 0.122906 0.942124 1.081618 0.082908 0.183562 1.279649 0.444281 0.324825 0.366257 0.204300 0.418716 0.133519 0.126558 0.247515 0.228614 -0.009709 0.082581 -0.130753 0.385723 0.131428 0.867853 0.313871 0.066567 0.581573 0.247432 0.283614 0.035148 -2.723884 1.274262 1.503747 0.678507 -0.231345 0.046849 0.033619 0.082395 1.642355 0.608005 0.964566 0.150302 -0.237431 0.000000 0.000000 0.772336 3.604076 2.147575 0.404640 0.255011 0.058166 4.684350 0.996704 2.108305 -0.342836 2.377748 0.052706 0.104751 0.046811 0.381700 3.288375 2.233613 3.031458 0.412079 0.000000 0.000000 4.430907 1.317567 4.284697
